{
	"asset":{
		"version":"2.0",
		"generator":"Created using the official Cinema 4D glTF Exporter 1.000x290161"
	},
	"scenes":[{
		"nodes":[0,
		1]
	}],
	"nodes":[{
		"name":"摄像机",
		"translation":[488.785,
		1698.505,
		-595.623],
		"rotation":[0.174,
		-0.796,
		-0.513,
		-0.27],
		"scale":[1,
		1,
		1],
		"camera":0
	},
	{
		"name":"空白",
		"translation":[0,
		0,
		0],
		"rotation":[0,
		0,
		0,
		-1],
		"scale":[10,
		-10,
		10],
		"children":[2]
	},
	{
		"name":"融球",
		"translation":[0,
		0,
		0],
		"rotation":[0,
		0,
		0,
		-1],
		"scale":[1,
		1,
		1],
		"mesh":0
	}],
	"meshes":[{
		"primitives":[{
			"attributes":{
				"POSITION":1,
				"NORMAL":2
			},
			"indices":0,
			"material":0
		}]
	}],
	"cameras":[{
		"type":"perspective",
		"perspective":{
			"znear":0.01,
			"zfar":10000000000,
			"aspectRatio":1.778,
			"yfov":0.081
		}
	}],
	"accessors":[{
		"bufferView":0,
		"type":"SCALAR",
		"componentType":5123,
		"count":65916,
		"byteOffset":0,
		"min":[0],
		"max":[10989]
	},
	{
		"bufferView":1,
		"type":"VEC3",
		"componentType":5126,
		"count":10990,
		"byteOffset":0,
		"min":[-20.629,
		-3.275,
		-3.304],
		"max":[20.605,
		3.294,
		3.298]
	},
	{
		"bufferView":1,
		"type":"VEC3",
		"componentType":5126,
		"count":10990,
		"byteOffset":12,
		"min":[-0.999,
		-1,
		-1],
		"max":[0.999,
		1,
		1]
	},
	{
		"bufferView":2,
		"type":"SCALAR",
		"componentType":5126,
		"count":363,
		"byteOffset":0,
		"min":[0],
		"max":[12]
	},
	{
		"bufferView":2,
		"type":"VEC4",
		"componentType":5126,
		"count":363,
		"byteOffset":1452,
		"min":[-0.707,
		-0.707,
		0,
		-1],
		"max":[1,
		0,
		0.707,
		0.701]
	}],
	"bufferViews":[{
		"buffer":0,
		"byteOffset":0,
		"byteLength":131832,
		"target":34963
	},
	{
		"buffer":0,
		"byteOffset":131832,
		"byteLength":263760,
		"target":34962,
		"byteStride":24
	},
	{
		"buffer":1,
		"byteOffset":0,
		"byteLength":7260
	}],
	"buffers":[{
		"uri":"data:application/octet-stream;base64,",
		"byteLength":395592
	},
	{
		"uri":"data:application/octet-stream;base64,",
		"byteLength":7260
	}],
	"materials":[{
		"pbrMetallicRoughness":{
			"baseColorFactor":[0.244,
			0.582,
			0.84,
			1],
			"metallicFactor":0,
			"roughnessFactor":0
		},
		"emissiveFactor":[0,
		0.767,
		1],
		"alphaMode":"OPAQUE",
		"doubleSided":true,
		"name":"材质.1"
	}],
	"animations":[{
		"samplers":[{
			"input":3,
			"interpolation":"LINEAR",
			"output":4
		}],
		"channels":[{
			"sampler":0,
			"target":{
				"node":2,
				"path":"rotation"
			}
		}]
	}]
}